<svg xmlns="http://www.w3.org/2000/svg" viewBox="0 0 256 256" role="img" aria-label="Smiley chibi kawaii simple">
  <defs>
    <radialGradient id="faceGrad" cx="35%" cy="30%" r="85%">
      <stop offset="0%" stop-color="#FFFBE0"/>
      <stop offset="50%" stop-color="#FFE066"/>
      <stop offset="100%" stop-color="#F6B42A"/>
    </radialGradient>

    <filter id="dropShadow" x="-20%" y="-20%" width="140%" height="140%">
      <feOffset dy="4"/>
      <feGaussianBlur stdDeviation="6" result="b"/>
      <feColorMatrix type="matrix" values="
        0 0 0 0 0
        0 0 0 0 0
        0 0 0 0 0
        0 0 0 .25 0"/>
      <feBlend in="SourceGraphic" in2="b" mode="normal"/>
    </filter>
  </defs>

  <ellipse cx="128" cy="214" rx="78" ry="20" fill="#000" opacity=".10"/>

  <g filter="url(#dropShadow)">
    <circle cx="128" cy="128" r="100" fill="url(#faceGrad)" stroke="#D08E1C" stroke-width="2"/>

    <!-- reflets globaux -->
    <path d="M72,58c26-16,58-20,84-12 12,3 22,10 26,14 4,6-2,12-9,14-36,7-72,9-104,6-8-2-11-12 3-22z"
          fill="#FFF" opacity=".22"/>

    <!-- joues -->
    <ellipse cx="72"  cy="166" rx="26" ry="16" fill="#FF8CB0" opacity=".5"/>
    <ellipse cx="184" cy="166" rx="26" ry="16" fill="#FF8CB0" opacity=".5"/>

    <!-- Œil gauche -->
    <g transform="translate(-18,10)">
      <ellipse cx="92" cy="128" rx="24" ry="32" fill="#7A4C12"/>
      <circle cx="100" cy="116" r="7" fill="#FFF"/>
    </g>
    <!-- Œil droit simplifié et bien aligné -->
    <g transform="translate(88,10)">
      <ellipse cx="92" cy="128" rx="24" ry="32" fill="#7A4C12"/>
      <circle cx="100" cy="116" r="7" fill="#FFF"/>
    </g>

    <!-- sourcils -->
    <path d="M58,78q18-12 36,0" fill="none" stroke="#7A4C12" stroke-width="5" stroke-linecap="round" opacity=".5"/>
    <path d="M162,78q18-12 36,0" fill="none" stroke="#7A4C12" stroke-width="5" stroke-linecap="round" opacity=".5"/>

    <!-- nez -->
    <circle cx="128" cy="168" r="2.5" fill="#7A2E12" opacity=".9"/>

    <!-- bouche style cat -->
    <path d="M128,170 v10" stroke="#7A2E12" stroke-width="5" stroke-linecap="round" fill="none"/>
    <path d="M128,178 q-16 14 -28 0" stroke="#7A2E12" stroke-width="5" stroke-linecap="round" stroke-linejoin="round" fill="none"/>
    <path d="M128,178 q16 14 28 0"  stroke="#7A2E12" stroke-width="5" stroke-linecap="round" stroke-linejoin="round" fill="none"/>
  </g>
</svg>
